# xmcd
#
# Track frame offsets: 
#        150
#        13085
#        27007
#        42185
#        54882
#        72097
#        88497
#        107857
#        123955
#        139895
#        159460
#        175450
#        192025
#        206997
#
# Disc length: 2989 seconds
#
# Revision: 0
# Processed by: cddbd v1.5.2PL0 Copyright (c) Steve Scherf et al.
# Submitted via: ExactAudioCopy v1.3
#
DISCID=c30bab0e
DTITLE=Various Artist - 盆踊りの音楽 ベスト Disc2
DYEAR=2004
DGENRE=Country
TTITLE0=寅さん音頭
TTITLE1=ソーラン節
TTITLE2=相馬盆唄
TTITLE3=おこさ節
TTITLE4=真室川音頭
TTITLE5=東京五輪音頭
TTITLE6=秩父音頭
TTITLE7=佐渡おけさ
TTITLE8=よさこい鳴子踊り
TTITLE9=ふるさと音頭
TTITLE10=しあわせ音頭
TTITLE11=伊勢音頭
TTITLE12=秋田おばこ
TTITLE13=串本節
EXTD=
EXTT0=
EXTT1=
EXTT2=
EXTT3=
EXTT4=
EXTT5=
EXTT6=
EXTT7=
EXTT8=
EXTT9=
EXTT10=
EXTT11=
EXTT12=
EXTT13=
PLAYORDER=
